<svg xmlns="http://www.w3.org/2000/svg" viewBox="0 0 4500 4500" width="4500" height="4500">
	<style>
		tspan { white-space:pre }
		.shp0 { fill: #ff0000;stroke: #000000;stroke-width: 68 } 
	</style>
	<path id="MIA " fill="#000000" d="M245.2 1430L245.2 3151.2Q245.2 3161.6 240 3166.8Q237.4 3172 224.4 3172L208.8 3172Q198.4 3172 193.2 3166.8Q188 3161.6 188 3151.2L188 1378Q188 1328.6 216.6 1328.6Q229.6 1328.6 240 1339Q253 1349.4 273.8 1375.4L1025.2 2358.2L1776.6 1375.4Q1797.4 1349.4 1807.8 1339Q1820.8 1328.6 1833.8 1328.6Q1862.4 1328.6 1862.4 1378L1862.4 3151.2Q1862.4 3161.6 1857.2 3166.8Q1854.6 3172 1841.6 3172L1826 3172Q1815.6 3172 1810.4 3166.8Q1805.2 3161.6 1805.2 3151.2L1805.2 1430L1092.8 2360.8Q1069.4 2392 1051.2 2407.6Q1035.6 2423.2 1025.2 2423.2Q1014.8 2423.2 996.6 2407.6Q981 2392 957.6 2360.8L245.2 1430ZM2387.6 3151.2Q2387.6 3161.6 2382.4 3166.8Q2379.8 3172 2366.8 3172L2351.2 3172Q2340.8 3172 2335.6 3166.8Q2330.4 3161.6 2330.4 3151.2L2330.4 1372.8Q2330.4 1359.8 2335.6 1357.2Q2340.8 1352 2351.2 1352L2366.8 1352Q2379.8 1352 2382.4 1357.2Q2387.6 1359.8 2387.6 1372.8L2387.6 3151.2ZM3474.4 1417L2707.4 3143.4Q2699.6 3161.6 2691.8 3166.8Q2686.6 3172 2673.6 3172L2652.8 3172Q2639.8 3172 2637.2 3166.8Q2634.6 3159 2642.4 3143.4L3422.4 1396.2Q3440.6 1357.2 3451 1344.2Q3461.4 1328.6 3474.4 1328.6Q3487.4 1328.6 3497.8 1344.2Q3508.2 1357.2 3526.4 1396.2L4306.4 3143.4Q4311.6 3159 4311.6 3161.6Q4311.6 3172 4293.4 3172L4275.2 3172Q4262.2 3172 4254.4 3166.8Q4249.2 3161.6 4241.4 3143.4L3474.4 1417Z" />
	<path id="Shape 1" class="shp0" d="M188 1219C188 1219 4312 1213.34 4312 1219" />
	<path id="Shape 1 copy" class="shp0" d="M188 3259C188 3259 4312 3253.34 4312 3259" />
</svg>